HIERARCHY
ROOT Hips
{
	OFFSET 0.0000 0.0000 0.0000
	CHANNELS 6 Xposition Yposition Zposition Zrotation Xrotation Yrotation
	JOINT Ab
	{
		OFFSET -0.0000 8.0846 -0.0000
		CHANNELS 3 Zrotation Xrotation Yrotation
		JOINT Chest
		{
			OFFSET -0.0000 25.0068 -0.0000
			CHANNELS 3 Zrotation Xrotation Yrotation
			JOINT Neck
			{
				OFFSET -0.0000 25.0068 0.0000
				CHANNELS 3 Zrotation Xrotation Yrotation
				JOINT Head
				{
					OFFSET -0.0000 10.7556 0.0000
					CHANNELS 3 Zrotation Xrotation Yrotation
					End Site
					{
						OFFSET -0.0000 16.6222 0.0000
					}
				}
			}
			JOINT LeftCollar
			{
				OFFSET -0.0000 25.0068 0.0000
				CHANNELS 3 Zrotation Xrotation Yrotation
				JOINT LeftShoulder
				{
					OFFSET 19.5556 -0.0000 0.0000
					CHANNELS 3 Zrotation Xrotation Yrotation
					JOINT LeftElbow
					{
						OFFSET 27.1828 0.0000 0.0000
						CHANNELS 3 Zrotation Xrotation Yrotation
						JOINT LeftWrist
						{
							OFFSET 23.3157 0.0000 0.0000
							CHANNELS 3 Zrotation Xrotation Yrotation
							End Site
							{
								OFFSET 0.0000 -14.6667 0.0000
							}
						}
					}
				}
			}
			JOINT RightCollar
			{
				OFFSET -0.0000 25.0068 0.0000
				CHANNELS 3 Zrotation Xrotation Yrotation
				JOINT RightShoulder
				{
					OFFSET -19.5556 0.0000 0.0000
					CHANNELS 3 Zrotation Xrotation Yrotation
					JOINT RightElbow
					{
						OFFSET -27.1828 0.0000 0.0000
						CHANNELS 3 Zrotation Xrotation Yrotation
						JOINT RightWrist
						{
							OFFSET -23.3157 0.0000 0.0000
							CHANNELS 3 Zrotation Xrotation Yrotation
							End Site
							{
								OFFSET -0.0000 -14.6667 0.0000
							}
						}
					}
				}
			}
		}
	}
	JOINT LeftHip
	{
		OFFSET 11.7333 0.0000 0.0000
		CHANNELS 3 Zrotation Xrotation Yrotation
		JOINT LeftKnee
		{
			OFFSET -0.0000 -40.8688 0.0000
			CHANNELS 3 Zrotation Xrotation Yrotation
			JOINT LeftAnkle
			{
				OFFSET -0.0000 -44.4337 0.0000
				CHANNELS 3 Zrotation Xrotation Yrotation
				End Site
				{
					OFFSET -0.0000 -4.8889 16.6222
				}
			}
		}
	}
	JOINT RightHip
	{
		OFFSET -11.7333 0.0000 0.0000
		CHANNELS 3 Zrotation Xrotation Yrotation
		JOINT RightKnee
		{
			OFFSET -0.0000 -40.8688 0.0000
			CHANNELS 3 Zrotation Xrotation Yrotation
			JOINT RightAnkle
			{
				OFFSET -0.0000 -44.4337 0.0000
				CHANNELS 3 Zrotation Xrotation Yrotation
				End Site
				{
					OFFSET -0.0000 -4.8889 16.6222
				}
			}
		}
	}
}
MOTION
Frames: 8
Frame Time: 0.010000
1.6352 85.6311 86.6132 1.2036 351.9334 184.6352 3.8851 9.5286 353.9344 3.9985 10.4244 353.8937 6.5600 348.6779 1.3352 355.3427 17.1001 1.4146 338.9714 358.4813 8.2222 328.2991 49.8462 325.6926 32.7169 349.8489 326.1560 83.5700 355.7908 2.4166 19.6368 359.1003 354.9271 61.4609 36.3698 2.1194 339.5040 354.6359 29.0600 278.0750 352.7169 19.9527 4.3411 4.2126 353.2449 359.1905 12.1738 354.6577 353.8382 341.7377 21.1839 2.8297 322.9871 7.4143 1.3371 34.7671 4.7503 352.6494 351.9296 336.5104 
1.8220 85.6880 86.2814 1.2002 351.8348 184.6233 3.9233 9.4509 353.9807 3.9429 10.4460 353.9448 6.4992 348.8105 1.3097 355.4441 17.1054 1.3896 338.9661 358.4632 8.2964 328.1920 49.8650 325.6998 32.8091 349.8272 326.2639 83.4505 355.7439 2.4504 19.6308 359.1240 355.0600 61.0277 36.4197 2.4942 339.6237 354.6776 29.1354 277.9148 352.8889 19.8793 4.4102 4.1896 353.4426 359.2066 12.3544 354.7005 353.8180 341.8432 21.1919 3.0233 323.1067 7.4499 1.2682 34.8051 4.9328 352.4578 351.7134 336.3620 
1.9970 85.7573 85.9496 1.1746 351.7458 184.6503 3.9297 9.3424 354.0224 3.9062 10.4833 353.9855 6.4673 348.8917 1.2655 355.5032 17.1742 1.3377 339.1142 358.5312 7.7553 325.6575 48.0328 327.9685 31.5447 350.2115 325.0689 83.8359 356.0444 1.0062 19.6265 359.1337 355.1460 60.7132 36.5113 2.8395 339.4868 354.5950 29.1435 277.7905 352.9604 19.7862 4.4564 4.1490 353.6512 359.2400 12.5749 354.6803 353.2486 342.1599 20.9854 3.1544 323.2651 7.4102 1.1458 34.8055 5.1806 352.4132 351.5014 336.2462 
2.1723 85.8296 85.6097 1.1585 351.6709 184.6575 3.9186 9.2046 354.0823 3.8832 10.5205 354.0404 6.4385 348.9786 1.2361 355.5190 17.2752 1.3220 339.0856 358.5537 7.8561 325.6383 48.1842 327.8729 31.5872 350.0226 325.2668 83.6752 356.0012 1.0090 19.6156 359.1604 355.2332 60.3123 36.4791 3.2082 339.5564 354.6275 29.1794 277.7969 352.9345 19.8177 4.5238 4.1036 353.7684 359.1734 12.8156 354.8272 353.0242 342.2990 20.9634 3.3034 323.4406 7.3941 1.0591 34.7867 5.3039 352.3866 351.2025 336.1447 
2.3395 85.9159 85.2803 1.1543 351.5774 184.7128 3.9339 9.0609 354.1264 3.8587 10.4930 354.0840 6.4173 349.0448 1.1949 355.5087 17.3882 1.2914 339.0804 358.5639 7.8076 325.0310 47.9403 328.3722 31.3760 350.0213 325.0701 83.7606 356.1275 0.8308 19.6106 359.1814 355.2772 60.0043 36.4980 3.5238 339.4151 354.5610 29.2078 277.9804 352.9513 19.7626 4.5933 4.0567 353.9323 359.1848 12.9467 354.8231 352.6551 342.3989 20.9519 3.4140 323.6242 7.3586 1.0117 34.7134 5.3914 352.2947 351.0108 336.0746 
2.5037 86.0052 84.9351 1.1414 351.5207 184.7756 3.9058 8.8930 354.1849 3.8642 10.5184 354.1329 6.4319 349.0656 1.1617 355.4695 17.4989 1.2685 339.0724 358.5427 7.8381 324.6342 48.0169 328.7016 31.4306 349.9452 325.0041 83.8198 356.1732 0.9632 19.5874 359.1828 355.3040 59.7212 36.4819 3.8251 339.3068 354.5189 29.2673 277.9091 352.9381 19.7378 4.6470 4.0718 354.1692 359.2255 13.0092 354.8245 351.5612 342.3426 20.7296 3.5200 323.8667 7.3146 0.9431 34.6109 5.4691 352.1595 350.8440 336.0102 
2.6526 86.0812 84.6410 1.1211 351.4805 184.8509 3.8700 8.7378 354.2359 3.8638 10.5193 354.1757 6.4010 349.0822 1.1172 355.5279 17.5498 1.2231 339.0446 358.5354 7.9379 324.5124 48.2775 328.7934 31.5759 349.8705 325.0690 83.8606 356.1893 1.2441 19.5647 359.1903 355.3062 59.4906 36.3702 4.0543 339.2623 354.4965 29.3643 277.8541 353.0511 19.7356 4.7026 4.1002 354.2431 359.2063 12.9616 354.9965 351.2494 342.6806 20.6023 3.5855 324.1055 7.3105 0.9236 34.4854 5.4897 352.0583 350.7208 335.9420 
2.7948 86.1603 84.3661 1.1118 351.4248 184.9377 3.8562 8.5605 354.2830 3.8344 10.4959 354.2190 6.3696 349.1120 1.0603 355.6002 17.5521 1.1603 339.0476 358.5315 7.9564 324.1429 48.2597 329.1014 31.4818 349.8738 324.9932 84.0004 356.2645 1.2456 19.5445 359.2001 355.3128 59.3170 36.2638 4.2344 339.1634 354.4760 29.4250 277.8801 353.0573 19.6929 4.7563 4.1058 354.4199 359.2240 12.8558 355.0546 350.7989 343.0734 20.4420 3.6485 324.3209 7.2757 0.8954 34.3604 5.5330 351.9512 350.6173 335.8707 
